<svg id="Layer_1" data-name="Layer 1" xmlns="http://www.w3.org/2000/svg" viewBox="0 0 257.8 257.28"><defs><style>.cls-1{fill:#10c2ed;}</style></defs><title>Chattermill</title><path class="cls-1" d="M39.19,134A94.37,94.37,0,0,1,60.68,83.25l30.05,30a4.92,4.92,0,0,1,.75,6A43.71,43.71,0,0,0,87,130.05a5.24,5.24,0,0,1-5,3.91Zm-5.29,0H23.75a5.28,5.28,0,0,1-5.25-5.87A110.9,110.9,0,0,1,41.59,72.51a5.28,5.28,0,0,1,7.87-.46l7.23,7.22A95.6,95.6,0,0,0,33.9,134M71.17,72.63a89.13,89.13,0,0,1,50.88-21.48V94a5.19,5.19,0,0,1-3.91,5,43.74,43.74,0,0,0-10.79,4.45,5,5,0,0,1-6-.76Zm-3.9-3.9L60,61.52a5.27,5.27,0,0,1,.46-7.87,111.27,111.27,0,0,1,55.66-23,5.28,5.28,0,0,1,5.89,5.24V46.07A95.55,95.55,0,0,0,67.27,68.73m124.49,0A95.44,95.44,0,0,0,137,46.08V35.92a5.27,5.27,0,0,1,5.88-5.24,111.32,111.32,0,0,1,55.64,23A5.28,5.28,0,0,1,199,61.5Zm-3.9,3.9L157.72,102.7a5,5,0,0,1-6,.76A44.34,44.34,0,0,0,140.91,99a5.18,5.18,0,0,1-3.9-5V51.15a89.09,89.09,0,0,1,50.85,21.47M58.16,202.09a94.59,94.59,0,0,1-19.41-53.21H81.91a5.21,5.21,0,0,1,5,3.92,43.4,43.4,0,0,0,4.44,10.8,5,5,0,0,1-.77,6.07Zm-1.74,1.74-7,7a5.3,5.3,0,0,1-7.89-.46,110.79,110.79,0,0,1-23-55.64,5.26,5.26,0,0,1,5.24-5.87H33.86a95.45,95.45,0,0,0,22.56,55M198.35,83.25A94.28,94.28,0,0,1,219.86,134H177.12a5.25,5.25,0,0,1-5.05-3.92,43.56,43.56,0,0,0-4.5-10.8,5,5,0,0,1,.74-6Zm4-4L209.58,72a5.28,5.28,0,0,1,7.87.46,111,111,0,0,1,23.11,55.6,5.27,5.27,0,0,1-5.25,5.87H225.14a95.51,95.51,0,0,0-22.8-54.71m17.95,69.63a94.51,94.51,0,0,1-19.41,53.2l-32.47-32.41a5,5,0,0,1-.77-6.07,43.81,43.81,0,0,0,4.45-10.8,5.22,5.22,0,0,1,5-3.92Zm4.9,0h10.12a5.28,5.28,0,0,1,5.25,5.87,110.89,110.89,0,0,1-23,55.63,5.28,5.28,0,0,1-7.88.46l-7-7a95.59,95.59,0,0,0,22.56-54.94"/></svg>